<svg xmlns="http://www.w3.org/2000/svg" viewBox="0 0 70 85.295">
  <defs>
    <style>
      .cls-1 {
        fill: #f4ead5;
      }
    </style>
  </defs>
  <g id="key" transform="translate(-0.499)">
    <path id="Path_3" data-name="Path 3" class="cls-1" d="M30.551,61.453a5.453,5.453,0,0,1,1.5.35,7.495,7.495,0,1,1-9.6,4.5A7.261,7.261,0,0,1,25.6,62.453c-.049-.7-.1-1.449-.1-2.2a22.963,22.963,0,0,1,1.8-9.148A22.449,22.449,0,0,0,9.657,86.845l-9,24.909a2.3,2.3,0,0,0,.1,1.9l5.949,12.8a2.519,2.519,0,0,0,3.349,1.2l12.8-5.949a2.519,2.519,0,0,0,1.2-3.349l-1.9-4.149,4.1-1.9a2.585,2.585,0,0,0,1.249-3.349l-1.949-4.1,4.149-1.95a2.727,2.727,0,0,0,1.3-1.4l2.15-6.065a22.758,22.758,0,0,0,15.8-14.2A22.438,22.438,0,0,0,35.5,52.456a15.165,15.165,0,0,0-2.85-.8,16.975,16.975,0,0,0-2.149,8.6A9.491,9.491,0,0,0,30.551,61.453Zm0,0" transform="translate(0 -42.592)"/>
    <path id="Path_4" data-name="Path 4" class="cls-1" d="M161.217,147.452a2.464,2.464,0,0,0,3.2-1.5,2.512,2.512,0,0,0-1.5-3.2,2.544,2.544,0,0,0-3.2,1.5A2.468,2.468,0,0,0,161.217,147.452Zm0,0" transform="translate(-132.566 -118.844)"/>
    <path id="Path_5" data-name="Path 5" class="cls-1" d="M172.08,0c-4.97,0-8.768,3.933-10.7,8.514a17.555,17.555,0,0,1,5.349.551C167.885,7,169.742,5,172.08,5c1.549,0,3.049,1.117,4.349,2.666a27.445,27.445,0,0,1-3.349,48.386l1,2.866a2.727,2.727,0,0,0,1.3,1.4l4.149,1.949-1.95,4.1a2.584,2.584,0,0,0,1.25,3.349l4.1,1.9-1.9,4.149a2.52,2.52,0,0,0,1.2,3.349l12.8,5.948a2.52,2.52,0,0,0,3.349-1.2l5.948-12.8a2.3,2.3,0,0,0,.1-1.9l-9-24.909a22.492,22.492,0,0,0,3-20.994,22.2,22.2,0,0,0-15.4-14C180.878,3.716,176.729,0,172.08,0Zm0,0" transform="translate(-134.082)"/>
  </g>
</svg>
