<svg xmlns="http://www.w3.org/2000/svg" viewBox="0 0 70 75.937">
  <defs>
    <style>
      .cls-1 {
        fill: #f4ead5;
      }

      .cls-2 {
        fill: #3e4e59;
      }
    </style>
  </defs>
  <g id="leaf" transform="translate(-15.643 -0.001)">
    <path id="Path_1" data-name="Path 1" class="cls-1" d="M108.632,17.185C130.1,14.825,137.074,1.245,137.1,1.245a1.381,1.381,0,0,1,2.558.273c7.135,24.2,3.241,40.882-4.949,50.78a30.811,30.811,0,0,1-11.833,8.828A29.481,29.481,0,0,1,109.437,63.4c-8.8-.615-16.828-5.313-20.555-13.731a22.876,22.876,0,0,1-1.829-6.778,23.3,23.3,0,0,1,2.626-13.587,22.544,22.544,0,0,1,10.832-9.959,27.277,27.277,0,0,1,8.122-2.163Z" transform="translate(-57.743 -0.406)"/>
    <path id="Path_2" data-name="Path 2" class="cls-2" d="M79.2,1.348a1.381,1.381,0,1,1,2.748.235c0,.068-1.207,15.94-16.7,32l-.144.152A80.523,80.523,0,0,1,53.181,43.8l9.306,1.731a1.381,1.381,0,0,1-.463,2.717L49.879,45.972C38.8,52.986,20.034,59.461,18.394,74.74a1.381,1.381,0,0,1-2.748-.273C17.6,56.151,36.217,51.438,48.771,43.43l.175-.114a79.779,79.779,0,0,0,13.837-11.09l-1.1-10.892a1.381,1.381,0,1,1,2.738-.368c0,.031.007.063.009.094l.835,8.456C78.177,15.019,79.194,1.409,79.2,1.348Z" transform="translate(0 0)"/>
  </g>
</svg>
