<svg id="sunny" xmlns="http://www.w3.org/2000/svg" viewBox="0 0 70 70">
  <defs>
    <style>
      .cls-1 {
        fill: #f4ead5;
      }
    </style>
  </defs>
  <circle id="Ellipse_1" data-name="Ellipse 1" class="cls-1" cx="22.826" cy="22.826" r="22.826" transform="translate(12.174 12.174)"/>
  <g id="Group_3" data-name="Group 3">
    <path id="Path_6" data-name="Path 6" class="cls-1" d="M236.188,9.13a1.522,1.522,0,0,0,1.522-1.522V1.522a1.522,1.522,0,0,0-3.044,0V7.609A1.522,1.522,0,0,0,236.188,9.13Z" transform="translate(-201.188)"/>
    <path id="Path_7" data-name="Path 7" class="cls-1" d="M236.188,426.667a1.522,1.522,0,0,0-1.522,1.522v6.087a1.522,1.522,0,0,0,3.044,0v-6.087A1.522,1.522,0,0,0,236.188,426.667Z" transform="translate(-201.188 -365.797)"/>
    <path id="Path_8" data-name="Path 8" class="cls-1" d="M434.275,234.667h-6.087a1.522,1.522,0,1,0,0,3.044h6.087a1.522,1.522,0,0,0,0-3.044Z" transform="translate(-365.797 -201.189)"/>
    <path id="Path_9" data-name="Path 9" class="cls-1" d="M9.13,236.188a1.522,1.522,0,0,0-1.522-1.522H1.522a1.522,1.522,0,0,0,0,3.044H7.609A1.522,1.522,0,0,0,9.13,236.188Z" transform="translate(0 -201.188)"/>
    <path id="Path_10" data-name="Path 10" class="cls-1" d="M120.628,39.05a1.521,1.521,0,0,0,1.321.761,1.5,1.5,0,0,0,.761-.2,1.522,1.522,0,0,0,.557-2.079l-3.043-5.271a1.522,1.522,0,0,0-2.636,1.522Z" transform="translate(-100.642 -27.01)"/>
    <path id="Path_11" data-name="Path 11" class="cls-1" d="M333.536,401.751a1.522,1.522,0,0,0-2.636,1.522l3.043,5.271a1.521,1.521,0,0,0,1.321.761,1.5,1.5,0,0,0,.761-.2,1.522,1.522,0,0,0,.557-2.079Z" transform="translate(-283.522 -343.791)"/>
    <path id="Path_12" data-name="Path 12" class="cls-1" d="M402.458,123.235a1.5,1.5,0,0,0,.761-.2l5.271-3.043a1.522,1.522,0,1,0-1.411-2.7q-.057.03-.111.064L401.7,120.4a1.522,1.522,0,0,0,.761,2.84v0Z" transform="translate(-343.738 -100.409)"/>
    <path id="Path_13" data-name="Path 13" class="cls-1" d="M37.477,330.685l-5.271,3.043a1.522,1.522,0,0,0,.761,2.84,1.5,1.5,0,0,0,.761-.2L39,333.321a1.522,1.522,0,0,0-1.411-2.7q-.057.03-.111.064Z" transform="translate(-26.958 -283.307)"/>
    <path id="Path_14" data-name="Path 14" class="cls-1" d="M31.854,119.969l5.271,3.043a1.5,1.5,0,0,0,.758.2,1.522,1.522,0,0,0,.761-2.84l-5.271-3.043a1.522,1.522,0,1,0-1.633,2.568q.054.034.111.064Z" transform="translate(-26.607 -100.391)"/>
    <path id="Path_15" data-name="Path 15" class="cls-1" d="M408.158,333.711l-5.271-3.043a1.522,1.522,0,1,0-1.633,2.568c.036.023.073.044.111.064l5.271,3.043a1.5,1.5,0,0,0,.761.2,1.522,1.522,0,0,0,.761-2.84v0Z" transform="translate(-343.405 -283.29)"/>
    <path id="Path_16" data-name="Path 16" class="cls-1" d="M331.44,39.609a1.5,1.5,0,0,0,.761.2,1.522,1.522,0,0,0,1.321-.761l3.043-5.271a1.522,1.522,0,0,0-2.636-1.522l-3.043,5.271A1.522,1.522,0,0,0,331.44,39.609Z" transform="translate(-283.505 -27.012)"/>
    <path id="Path_17" data-name="Path 17" class="cls-1" d="M122.659,401.141a1.522,1.522,0,0,0-2.079.557l-3.043,5.271a1.522,1.522,0,0,0,.557,2.079,1.5,1.5,0,0,0,.761.2,1.522,1.522,0,0,0,1.321-.761l3.043-5.271a1.522,1.522,0,0,0-.559-2.078Z" transform="translate(-100.593 -343.738)"/>
  </g>
</svg>
